<?xml version="1.0" standalone="no"?>
<!DOCTYPE svg PUBLIC "-//W3C//DTD SVG 20010904//EN"
 "http://www.w3.org/TR/2001/REC-SVG-20010904/DTD/svg10.dtd">
<svg version="1.0" xmlns="http://www.w3.org/2000/svg"
 width="442.000000pt" height="372.000000pt" viewBox="0 0 442.000000 372.000000"
 preserveAspectRatio="xMidYMid meet">

<g transform="translate(0.000000,372.000000) scale(0.100000,-0.100000)"
fill="#000000" stroke="none">
<path d="M2986 3530 c-43 -5 -95 -14 -115 -21 -59 -19 -151 -74 -228 -137 -71
-58 -156 -150 -151 -163 5 -12 116 -99 126 -99 6 0 34 16 63 36 132 90 277
134 438 134 161 0 293 -37 474 -133 l78 -41 62 63 62 62 -60 55 c-73 67 -202
155 -270 184 -127 55 -315 78 -479 60z"/>
<path d="M849 2824 l-694 -694 275 -275 275 -275 420 420 420 420 1102 -1102
1103 -1103 272 273 273 272 -433 433 -432 432 0 538 0 537 -300 0 -300 0 -2
-220 -3 -219 -641 628 -641 629 -694 -694z"/>
<path d="M2975 3167 c-103 -27 -190 -89 -227 -160 l-20 -41 50 -48 50 -48 94
44 c166 79 264 80 418 3 47 -23 88 -42 91 -42 4 0 28 26 54 59 38 46 46 62 38
75 -19 31 -153 119 -215 141 -78 28 -256 36 -333 17z"/>
</g>
</svg>
